<?xml version="1.0" standalone="no"?>
<!DOCTYPE svg PUBLIC "-//W3C//DTD SVG 20010904//EN"
 "http://www.w3.org/TR/2001/REC-SVG-20010904/DTD/svg10.dtd">
<svg version="1.0" xmlns="http://www.w3.org/2000/svg"
 width="700.000000pt" height="700.000000pt" viewBox="0 0 700.000000 700.000000"
 preserveAspectRatio="xMidYMid meet">
<metadata>
Created by potrace 1.14, written by Peter Selinger 2001-2017
</metadata>
<g transform="translate(0.000000,700.000000) scale(0.100000,-0.100000)"
fill="#000000" stroke="none">
<path d="M6492 5969 c-52 -10 -110 -21 -130 -24 -20 -3 -44 -7 -52 -10 -8 -2
-32 -6 -53 -9 -20 -3 -97 -17 -170 -30 -129 -24 -177 -32 -227 -41 -14 -2 -88
-15 -165 -29 -77 -14 -156 -29 -175 -32 -36 -6 -57 -10 -100 -19 -14 -3 -104
-19 -200 -35 -96 -17 -195 -35 -220 -40 -25 -5 -62 -12 -82 -15 -21 -2 -57 -9
-80 -14 -24 -5 -59 -12 -78 -15 -19 -3 -48 -8 -65 -11 -16 -3 -43 -7 -60 -10
-16 -3 -41 -7 -55 -10 -14 -3 -79 -15 -145 -26 -116 -21 -133 -25 -124 -33 3
-3 396 -294 472 -350 12 -9 99 -74 193 -144 94 -70 196 -145 227 -167 31 -22
54 -45 52 -52 -2 -6 -46 -71 -97 -144 -51 -72 -114 -162 -139 -198 -25 -36
-82 -118 -127 -181 -44 -63 -96 -137 -116 -165 -28 -41 -479 -682 -516 -735
-6 -8 -80 -114 -166 -235 -85 -121 -170 -243 -190 -272 l-35 -52 -117 86
c-187 139 -276 203 -297 219 -11 8 -121 89 -245 179 -124 91 -259 190 -300
220 -41 30 -167 122 -280 205 -426 312 -595 436 -645 472 l-52 37 -13 -24 c-7
-14 -17 -25 -22 -25 -4 0 -8 -4 -8 -9 0 -5 -37 -61 -82 -126 -85 -119 -128
-180 -163 -231 -11 -16 -119 -171 -240 -344 -122 -173 -246 -351 -277 -395
-30 -44 -107 -153 -169 -242 -63 -89 -152 -217 -199 -284 -47 -67 -115 -165
-153 -218 -37 -53 -75 -107 -85 -121 -9 -14 -59 -86 -111 -160 -52 -74 -107
-153 -122 -175 -16 -22 -55 -78 -88 -125 -33 -47 -91 -130 -129 -186 l-70
-101 38 -29 c22 -16 67 -48 102 -72 35 -24 135 -94 223 -156 88 -62 203 -142
256 -179 l97 -66 138 200 c77 110 145 207 152 217 10 14 102 145 142 202 6 8
69 98 140 200 71 102 135 193 142 204 7 10 31 44 53 75 23 31 81 114 130 185
100 143 118 170 355 509 91 130 170 235 175 233 6 -2 194 -138 418 -302 224
-165 430 -315 457 -334 54 -39 314 -229 485 -355 61 -45 213 -157 339 -248
l228 -167 76 107 c41 60 99 142 128 183 29 41 75 107 102 145 27 39 295 421
597 850 301 429 568 809 593 845 43 61 212 302 281 400 17 25 54 78 82 118 28
40 56 72 63 70 11 -3 126 -77 526 -338 187 -122 453 -295 465 -302 10 -6 9 7
0 55 -8 34 -16 76 -18 92 -5 27 -43 241 -51 290 -2 11 -7 31 -10 45 -3 14 -8
41 -11 60 -2 19 -6 44 -9 55 -2 11 -16 88 -30 170 -15 83 -31 170 -36 195 -5
25 -11 61 -14 80 -4 19 -8 46 -11 60 -5 26 -9 46 -25 140 -5 30 -12 69 -15 85
-3 17 -19 107 -35 200 -17 94 -33 177 -35 185 -2 8 -7 38 -11 65 -3 28 -8 53
-10 56 -1 3 -6 28 -10 55 -3 27 -8 52 -10 55 -1 3 -6 28 -10 55 -3 27 -7 51
-9 54 -2 3 -6 30 -10 60 -4 30 -9 58 -11 62 -3 4 -7 26 -10 50 -4 24 -7 43 -8
44 0 0 -43 -7 -94 -17z"/>
</g>
</svg>
